<svg width="48" height="48" viewBox="0 0 48 48" fill="none" xmlns="http://www.w3.org/2000/svg">
  <rect x="7.5" y="7.5" width="33" height="33" rx="8" transform="rotate(45 24 24)" fill="#031523" stroke="#00D5FF" stroke-width="2.2"/>
  <path d="M15.5 24C17.7 18.3 22.5 15 28.2 15C31.7 15 34.4 16.2 36 18.1C34.1 17.5 31.4 17.5 28.2 18.7C24.4 20.2 21.4 23.2 19.8 27.3C18.5 30.5 18.8 33.4 20.2 35.6C16.4 33.8 13.8 28.5 15.5 24Z" fill="url(#paint0_linear_traak)"/>
  <path d="M29.3 16.2C24.8 18.1 21.6 21.4 20.5 25.2C24.2 22.1 29.5 21.8 34.1 24.8C36.8 26.6 38.1 29.2 38 31.8C40.4 26.1 36.6 18 29.3 16.2Z" fill="url(#paint1_linear_traak)"/>
  <path d="M19.7 28.4C22.7 25.5 27.2 24.5 31.3 26.2C34.2 27.4 36.3 29.6 37.2 32.3C35.1 36.4 30.9 39 25.8 38.2C21 37.5 18.6 33.4 19.7 28.4Z" fill="url(#paint2_linear_traak)"/>
  <defs>
    <linearGradient id="paint0_linear_traak" x1="15" y1="15" x2="32" y2="37" gradientUnits="userSpaceOnUse">
      <stop stop-color="#7CFFDA"/>
      <stop offset="1" stop-color="#1588FF"/>
    </linearGradient>
    <linearGradient id="paint1_linear_traak" x1="22" y1="16" x2="39" y2="32" gradientUnits="userSpaceOnUse">
      <stop stop-color="#1DD3FF"/>
      <stop offset="1" stop-color="#1D4FFF"/>
    </linearGradient>
    <linearGradient id="paint2_linear_traak" x1="19" y1="25" x2="37" y2="38" gradientUnits="userSpaceOnUse">
      <stop stop-color="#72FBD6"/>
      <stop offset="1" stop-color="#1E63FF"/>
    </linearGradient>
  </defs>
</svg>
